<?xml version="1.0" encoding="utf-8"?>
<!-- Generator: Adobe Illustrator 27.8.1, SVG Export Plug-In . SVG Version: 6.00 Build 0)  -->
<svg version="1.1" id="layer" xmlns="http://www.w3.org/2000/svg" xmlns:xlink="http://www.w3.org/1999/xlink" x="0px" y="0px"
	 viewBox="0 0 1700 388" style="enable-background:new 0 0 1700 388;" xml:space="preserve">
<style type="text/css">
	.st0{fill:white;}
	.st1{fill:#E12726;}
	.st2{fill:#B3282D;}
</style>
<g>
	<polygon class="st0" points="447.4,68.1 447.4,220.4 480.9,220.4 480.9,161.4 553.5,161.4 553.5,130.9 480.9,130.9 480.9,98.6 
		563.3,98.6 563.3,68.1 	"/>
	<path class="st0" d="M637.2,108.4l20.3,49.4h-40.3L637.2,108.4z M622.3,68.1l-65.2,153.5h34.1l13.8-34.1h64.4l13.8,34.1h35.1
		L653.2,68.1L622.3,68.1L622.3,68.1z"/>
	<polygon class="st0" points="836.1,68.1 836.1,161.8 764.6,68.1 733.7,68.1 733.7,220.4 766.8,220.4 766.8,123.4 840.7,220.4 
		869.2,220.4 869.2,68.1 	"/>
	<path class="st0" d="M892.8,200.5l19.9-23.7c13.6,11.2,28.1,18.5,45.6,18.5c13.6,0,21.9-5.4,21.9-14.4v-0.4
		c0-8.4-5.2-12.8-30.7-19.5c-30.7-7.8-50.6-16.3-50.6-46.6V114c0-27.7,22.3-46,53.4-46c22.3,0,41.1,7,56.6,19.5l-17.5,25.3
		c-13.4-9.4-26.7-15.1-39.5-15.1c-12.8,0-19.7,5.8-19.7,13.2v0.4c0,10,6.6,13.2,32.9,20.1c30.9,8,48.4,19.1,48.4,45.8v0.4
		c0,30.3-23.1,47.2-56,47.2C934.4,225,911.1,217,892.8,200.5"/>
	<polygon class="st0" points="1039.9,68.1 1073.5,68.1 1073.5,128.3 1135.3,128.3 1135.3,68.1 1168.8,68.1 1168.8,220.4 
		1135.3,220.4 1135.3,159.2 1073.5,159.2 1073.5,220.4 1039.9,220.4 	"/>
	<path class="st0" d="M1252.2,68.1h30.9l65.2,153.5h-35.1l-13.8-34.1H1235l-13.8,34.1H1187L1252.2,68.1z M1287.4,157.8l-20.3-49.4
		l-20.3,49.4H1287.4z"/>
	<polygon class="st0" points="1333.1,68.5 1369,68.5 1400.5,171.6 1434.7,68.1 1463.3,68.1 1497.7,171.6 1529.2,68.5 1564.3,68.5 
		1512.1,222 1483,222 1448.7,122.2 1414.2,222 1385.1,222 	"/>
	<polygon class="st0" points="1583.6,68.1 1698.5,68.1 1698.5,97.8 1616.9,97.8 1616.9,128.9 1688.7,128.9 1688.7,158.6 
		1616.9,158.6 1616.9,190.5 1699.5,190.5 1699.5,220.4 1583.6,220.4 	"/>
	<path class="st1" d="M193.5,74.1l-73-73.2c-0.7-0.7-1.4-0.6-1.8-0.5c-0.8,0.2-1.4,1-1.4,1.7v48.7c0,2.7,1.1,5.3,3.1,7.1l0,0
		l44.6,44.6L193.5,74.1z"/>
	<path class="st2" d="M70.9,50c-0.5-0.6-1.2-0.6-1.7-0.5c-0.8,0.2-1.3,0.9-1.4,1.6l0.1,48.6c-0.4,4.5,3,7.6,3,7.6l70.5,70.5
		c0.4,0.3,1.3,1.1,2.8,1.1v-55.5L70.9,50z"/>
	<path class="st1" d="M193.5,131.3l-28.4-28.7l-20.9,20.9V179c2,0,3.1-1.4,3.2-1.6L193.5,131.3z"/>
	<path class="st1" d="M269.7,2.1c0-1.3-1-1.8-1.8-1.8c-0.4,0-0.9,0.2-1.4,0.6l-73,73.1v57.2l71.9-71.9l0.1-0.1c2.4-2,4.1-5,4.1-7.7
		L269.7,2.1L269.7,2.1z"/>
	<polygon class="st2" points="193.5,74.1 165.1,102.5 193.5,131.3 	"/>
	<path class="st1" d="M74.3,194.2l-73.2,73c-0.7,0.7-0.6,1.4-0.5,1.8c0.2,0.8,1,1.4,1.7,1.4H51c2.7,0,5.3-1.1,7.1-3.1l0,0l44.6-44.6
		L74.3,194.2z"/>
	<path class="st2" d="M50.2,316.8c-0.6,0.5-0.6,1.2-0.5,1.7c0.2,0.8,0.9,1.3,1.6,1.4l48.6-0.1c4.5,0.4,7.6-3,7.6-3l70.5-70.5
		c0.3-0.4,1.1-1.3,1.1-2.8h-55.5L50.2,316.8z"/>
	<path class="st1" d="M131.4,194.2l-28.7,28.4l20.9,20.9h55.5c0-2-1.4-3.1-1.6-3.2L131.4,194.2z"/>
	<path class="st1" d="M2.3,117.9c-1.2,0-1.8,1.1-1.8,1.8c0,0.4,0.2,0.9,0.6,1.4l73.1,73h57.2l-71.9-71.9l-0.2-0.1
		c-2-2.4-5-4.1-7.7-4.1L2.3,117.9L2.3,117.9z"/>
	<polygon class="st2" points="74.3,194.2 102.7,222.6 131.4,194.2 	"/>
	<path class="st1" d="M194.1,314l73,73.2c0.7,0.7,1.4,0.6,1.8,0.5c0.8-0.2,1.4-1,1.4-1.7c0,0,0-48.6,0-48.7c0-2.7-1.1-5.3-3.1-7.1
		l0,0l-44.7-44.7L194.1,314z"/>
	<path class="st2" d="M316.7,338c0.5,0.6,1.2,0.6,1.7,0.5c0.8-0.2,1.3-0.9,1.4-1.6l-0.1-48.6c0.4-4.5-3-7.6-3-7.6l-70.5-70.4
		c-0.3-0.3-1.3-1.1-2.8-1.1v55.5L316.7,338z"/>
	<path class="st1" d="M194.1,256.8l28.4,28.7l20.9-20.9v-55.5c-2,0-3.1,1.4-3.2,1.6L194.1,256.8z"/>
	<path class="st1" d="M117.9,385.9c0,1.2,1,1.8,1.8,1.8c0.4,0,0.9-0.2,1.4-0.6l73-73.1v-57.2l-71.9,71.9l-0.1,0.2
		c-2.4,2-4.1,5-4.1,7.7L117.9,385.9L117.9,385.9z"/>
	<polygon class="st2" points="194.1,314 222.5,285.5 194.1,256.8 	"/>
	<path class="st1" d="M314.3,193.9l73.2-73c0.7-0.7,0.6-1.4,0.5-1.8c-0.2-0.8-1-1.4-1.7-1.4h-48.7c-2.7,0-5.3,1.1-7.1,3.1l0,0
		l-44.6,44.6L314.3,193.9z"/>
	<path class="st2" d="M338.3,71.2c0.6-0.5,0.7-1.2,0.5-1.7c-0.2-0.8-0.9-1.3-1.6-1.4l-48.6,0.1c-4.5-0.4-7.6,3-7.6,3l-70.5,70.5
		c-0.3,0.3-1.1,1.3-1.1,2.8h55.5L338.3,71.2z"/>
	<path class="st1" d="M257.1,193.9l28.7-28.4l-20.9-20.9h-55.5c0,2,1.4,3.1,1.6,3.2L257.1,193.9z"/>
	<path class="st1" d="M386.2,270.1c1.3,0,1.8-1.1,1.8-1.8c0-0.4-0.2-0.9-0.6-1.4l-73.1-73h-57.2l71.9,71.9l0.2,0.2
		c2,2.4,5,4.1,7.7,4.1L386.2,270.1L386.2,270.1z"/>
	<polygon class="st2" points="314.3,193.9 285.8,165.4 257.1,193.9 	"/>
	<g>
		<path class="st0" d="M447.4,248.8h17.4V337h-17.4V248.8z"/>
		<path class="st0" d="M477.3,248.8h16.2l21.1,48.8v-48.8h16.3V337h-16.3l-21-48.4V337h-16.3V248.8z"/>
		<path class="st0" d="M538.4,248.8h52.6v21.8h-17.7V337h-17.3v-66.5h-17.7V248.8z"/>
		<path class="st0" d="M598.9,248.8h46.4v18.8h-29.1v14h27v18h-27V317h29.9v20h-47.3V248.8z"/>
		<path class="st0" d="M655.7,337v-88.2h28.9c5.4,0,9.4,0.7,12.3,2.2c2.8,1.4,5.1,4.1,6.8,8s2.6,8.7,2.6,14.3c0,4.9-0.7,9.1-2,12.7
			s-3.2,6.4-5.5,8.6c-1.5,1.4-3.5,2.6-6.1,3.5c2.1,1.1,3.6,2.2,4.5,3.3c0.6,0.7,1.6,2.3,2.8,4.6c1.2,2.4,2,4.2,2.4,5.5l8.4,25.6
			h-19.6l-9.3-27c-1.2-3.5-2.2-5.8-3.1-6.8c-1.2-1.4-2.7-2-4.2-2h-1.5V337H655.7z M673.1,284.5h7.3c0.8,0,2.3-0.4,4.6-1.2
			c1.1-0.4,2.1-1.3,2.8-2.8s1.1-3.2,1.1-5.1c0-2.8-0.6-5-1.7-6.6c-1.1-1.5-3.3-2.3-6.5-2.3h-7.6V284.5z"/>
		<path class="st0" d="M750.8,322.4h-19.7l-2.7,14.6h-17.7l21.1-88.2h18.9l21.1,88.2h-18.1L750.8,322.4z M747.2,303.4l-6.2-31.7
			l-6.1,31.7H747.2z"/>
		<path class="st0" d="M813.2,300.9l15.2,7.2c-1,6.7-2.6,12.3-4.8,16.8c-2.2,4.5-4.9,7.9-8.2,10.2c-3.2,2.3-7.4,3.4-12.4,3.4
			c-6.1,0-11.1-1.4-14.9-4.2c-3.9-2.8-7.2-7.7-10-14.7c-2.8-7-4.2-16-4.2-26.9c0-14.6,2.5-25.8,7.4-33.7
			c4.9-7.8,11.9-11.8,20.9-11.8c7.1,0,12.6,2.2,16.6,6.7s7,11.4,9,20.7l-15.3,5.4c-0.5-2.7-1.1-4.7-1.7-5.9c-1-2.1-2.2-3.7-3.6-4.8
			c-1.4-1.1-3-1.7-4.7-1.7c-3.9,0-6.9,2.5-9,7.5c-1.6,3.7-2.4,9.5-2.4,17.4c0,9.8,0.9,16.5,2.8,20.1c1.9,3.6,4.5,5.4,8,5.4
			c3.3,0,5.8-1.5,7.5-4.4S812.4,306.5,813.2,300.9z"/>
		<path class="st0" d="M832.8,248.8h52.6v21.8h-17.7V337h-17.3v-66.5h-17.7V248.8z"/>
		<path class="st0" d="M894,248.8h17.4V337H894V248.8z"/>
		<path class="st0" d="M918.3,248.8h18.1l12.6,63.5l12.5-63.5H979L958.2,337h-18.8L918.3,248.8z"/>
		<path class="st0" d="M984.6,248.8h46.4v18.8H1002v14h27v18h-27V317h29.9v20h-47.3V248.8z"/>
		<path class="st0" d="M1067.1,248.8h22.8l8.8,53.7l8.7-53.7h22.8V337H1116v-67.3l-10.9,67.3h-12.8l-10.9-67.3V337h-14.2V248.8z"/>
		<path class="st0" d="M1141.2,248.8h46.4v18.8h-29.1v14h27v18h-27V317h29.9v20h-47.3V248.8z"/>
		<path class="st0" d="M1198,248.8h25.7c5.1,0,9.2,1.1,12.3,3.3c3.1,2.2,5.7,5.3,7.7,9.3s3.5,8.8,4.4,14.1
			c0.9,5.4,1.4,11.1,1.4,17.1c0,9.4-0.7,16.7-2,21.9c-1.4,5.2-3.3,9.6-5.7,13.1c-2.4,3.5-5,5.8-7.8,7c-3.8,1.6-7.2,2.4-10.3,2.4
			H1198V248.8z M1215.3,268.8V317h4.2c3.6,0,6.2-0.6,7.7-1.9c1.5-1.3,2.7-3.5,3.6-6.6s1.3-8.3,1.3-15.3c0-9.3-1-15.7-2.9-19.2
			s-5.1-5.2-9.6-5.2H1215.3z"/>
		<path class="st0" d="M1259.3,248.8h17.4V337h-17.4V248.8z"/>
		<path class="st0" d="M1323.6,322.4h-19.7l-2.7,14.6h-17.7l21.1-88.2h18.9l21.1,88.2h-18.1L1323.6,322.4z M1320,303.4l-6.2-31.7
			l-6.1,31.7H1320z"/>
		<path class="st0" d="M1376.4,248.8h25.7c5.1,0,9.2,1.1,12.3,3.3c3.1,2.2,5.7,5.3,7.7,9.3c2,4.1,3.5,8.8,4.4,14.1
			c0.9,5.4,1.4,11.1,1.4,17.1c0,9.4-0.7,16.7-2,21.9c-1.4,5.2-3.3,9.6-5.7,13.1c-2.4,3.5-5,5.8-7.8,7c-3.8,1.6-7.2,2.4-10.3,2.4
			h-25.7V248.8z M1393.7,268.8V317h4.2c3.6,0,6.2-0.6,7.7-1.9c1.5-1.3,2.7-3.5,3.6-6.6s1.3-8.3,1.3-15.3c0-9.3-1-15.7-2.9-19.2
			c-1.9-3.5-5.1-5.2-9.6-5.2H1393.7z"/>
		<path class="st0" d="M1437,248.8h46.4v18.8h-29.1v14h27v18h-27V317h29.9v20H1437V248.8z"/>
		<path class="st0" d="M1490.6,307.8l16.5-1.6c0.4,4.2,1.1,7.4,2.2,9.6c1.8,3.6,4.3,5.4,7.6,5.4c2.5,0,4.4-0.9,5.7-2.7s2-3.9,2-6.4
			c0-2.3-0.6-4.3-1.9-6.1c-1.3-1.8-4.2-3.5-8.9-5.1c-7.6-2.7-13-6.3-16.2-10.7c-3.3-4.5-4.9-10.1-4.9-17c0-4.5,0.8-8.8,2.5-12.9
			s4.2-7.2,7.5-9.5c3.4-2.3,7.9-3.5,13.8-3.5c7.2,0,12.6,2.1,16.4,6.3c3.8,4.2,6,10.9,6.7,20l-16.3,1.5c-0.4-4-1.3-6.9-2.7-8.7
			s-3.3-2.7-5.8-2.7c-2,0-3.5,0.7-4.5,2s-1.5,3-1.5,4.9c0,1.4,0.4,2.7,1.3,3.8c0.8,1.2,2.8,2.2,5.8,3.3c7.6,2.6,13,5.2,16.3,7.8
			c3.3,2.6,5.7,5.9,7.1,9.8c1.5,3.9,2.2,8.2,2.2,13.1c0,5.7-1,10.9-3,15.6s-4.8,8.4-8.3,10.9s-8.1,3.7-13.5,3.7
			c-9.5,0-16.1-2.9-19.8-8.7C1493.1,324.1,1491.1,316.7,1490.6,307.8z"/>
		<path class="st0" d="M1550.8,248.8h17.4V337h-17.4V248.8z"/>
		<path class="st0" d="M1608.8,305v-18.4h26.8v37.6c-5.1,5.5-9.7,9.2-13.6,11.2s-8.6,3-14,3c-6.7,0-12.1-1.8-16.3-5.4
			c-4.2-3.6-7.4-8.9-9.7-16c-2.3-7.1-3.5-15.2-3.5-24.3c0-9.6,1.3-18,3.8-25.1c2.5-7.1,6.2-12.5,11.1-16.2c3.8-2.8,8.9-4.3,15.3-4.3
			c6.2,0,10.8,0.9,13.9,2.6c3.1,1.8,5.6,4.5,7.6,8.2c2,3.7,3.5,8.4,4.6,14.1l-16.7,4.7c-0.7-3.3-1.9-5.9-3.5-7.6s-3.7-2.6-6.3-2.6
			c-3.8,0-6.8,2.1-9.1,6.2c-2.3,4.2-3.4,10.7-3.4,19.7c0,9.6,1.1,16.4,3.4,20.5c2.3,4.1,5.5,6.1,9.5,6.1c1.9,0,3.8-0.4,5.5-1.3
			c1.8-0.9,3.8-2.4,6-4.5V305H1608.8z"/>
		<path class="st0" d="M1645.9,248.8h16.2l21.1,48.8v-48.8h16.3V337h-16.3l-21-48.4V337h-16.3V248.8z"/>
	</g>
</g>
</svg>
