<svg xmlns="http://www.w3.org/2000/svg" width="59.916" height="48" viewBox="0 0 59.916 48">
  <g id="fanshawe-college-WHITE" transform="translate(-14 -76)">
    <path id="Path_132" data-name="Path 132" d="M14,499v7.288h1.6v-2.823h3.476v-1.459H15.6v-1.546H19.55V499Z" transform="translate(0 -382.384)" fill="#fff"/>
    <path id="Path_133" data-name="Path 133" d="M72.531,500.33l.97,2.362h-1.93Zm-.711-1.93L68.7,505.745h1.632l.663-1.632h3.082l.663,1.632h1.68L73.3,498.4Z" transform="translate(-49.448 -381.842)" fill="#fff"/>
    <path id="Path_134" data-name="Path 134" d="M161.6,499v4.484L158.179,499H156.7v7.288h1.584V501.65l3.533,4.638h1.363V499Z" transform="translate(-128.998 -382.384)" fill="#fff"/>
    <path id="Path_135" data-name="Path 135" d="M236,504.137l.951-1.133a3.359,3.359,0,0,0,2.18.883c.653,0,1.047-.259,1.047-.691v-.019c0-.4-.25-.615-1.469-.931-1.469-.374-2.42-.778-2.42-2.228V500a2.283,2.283,0,0,1,2.554-2.2,4.207,4.207,0,0,1,2.708.931l-.835,1.21a3.381,3.381,0,0,0-1.892-.72c-.615,0-.941.279-.941.634v.019c0,.48.317.634,1.575.96,1.479.384,2.314.912,2.314,2.189v.019c0,1.45-1.1,2.256-2.679,2.256A4.551,4.551,0,0,1,236,504.137" transform="translate(-200.684 -381.299)" fill="#fff"/>
    <path id="Path_136" data-name="Path 136" d="M309.3,499h1.6v2.881h2.957V499h1.6v7.288h-1.6v-2.929H310.9v2.929h-1.6Z" transform="translate(-266.946 -382.384)" fill="#fff"/>
    <path id="Path_137" data-name="Path 137" d="M385.721,498.4H387.2l3.121,7.345h-1.68l-.663-1.632h-3.082l-.663,1.632H382.6Zm1.68,4.292-.97-2.362-.97,2.362Z" transform="translate(-333.207 -381.842)" fill="#fff"/>
    <path id="Path_138" data-name="Path 138" d="M455.4,498.819h1.719l1.508,4.935,1.632-4.955h1.373l1.642,4.955,1.507-4.935h1.68l-2.5,7.345h-1.392l-1.642-4.772-1.651,4.772h-1.392Z" transform="translate(-399.017 -382.203)" fill="#fff"/>
    <path id="Path_139" data-name="Path 139" d="M580.2,499h5.5v1.421h-3.908v1.488h3.437v1.421h-3.437v1.527h3.956v1.431H580.2Z" transform="translate(-511.834 -382.384)" fill="#fff"/>
    <path id="Path_140" data-name="Path 140" d="M256.417,83.113l-7.009-7.029a.169.169,0,0,0-.173-.048.183.183,0,0,0-.134.163v4.676a.915.915,0,0,0,.3.682h0l4.282,4.282Z" transform="translate(-212.526 -0.026)" fill="#e12726"/>
    <path id="Path_141" data-name="Path 141" d="M199.9,125.2a.161.161,0,0,0-.163-.048.184.184,0,0,0-.134.154l.01,4.667a.958.958,0,0,0,.288.73l6.769,6.769a.416.416,0,0,0,.269.106v-5.329Z" transform="translate(-167.779 -44.431)" fill="#b3282d"/>
    <path id="Path_142" data-name="Path 142" d="M280.734,181.056l-2.727-2.756L276,180.307v5.329a.376.376,0,0,0,.307-.154Z" transform="translate(-236.843 -92.477)" fill="#e12726"/>
    <path id="Path_143" data-name="Path 143" d="M332.617,76.173a.165.165,0,0,0-.173-.173.229.229,0,0,0-.134.058L325.3,83.077v5.492l6.9-6.9.01-.01a1.038,1.038,0,0,0,.394-.739l.01-4.743Z" transform="translate(-281.409)" fill="#e12726"/>
    <path id="Path_144" data-name="Path 144" d="M299.627,149.8l-2.727,2.727,2.727,2.765Z" transform="translate(-255.736 -66.714)" fill="#b3282d"/>
    <path id="Path_145" data-name="Path 145" d="M139.413,269.9l-7.029,7.009a.169.169,0,0,0-.048.173.183.183,0,0,0,.163.134h4.676a.915.915,0,0,0,.682-.3h0l4.282-4.282Z" transform="translate(-106.967 -175.282)" fill="#e12726"/>
    <path id="Path_146" data-name="Path 146" d="M181.5,326.238a.161.161,0,0,0-.048.163.184.184,0,0,0,.154.134l4.667-.01a.958.958,0,0,0,.73-.288l6.769-6.769a.416.416,0,0,0,.106-.269h-5.329Z" transform="translate(-151.372 -219.848)" fill="#b3282d"/>
    <path id="Path_147" data-name="Path 147" d="M237.256,269.9l-2.756,2.727,2.007,2.007h5.329a.376.376,0,0,0-.154-.307Z" transform="translate(-199.328 -175.282)" fill="#e12726"/>
    <path id="Path_148" data-name="Path 148" d="M132.473,193.6a.177.177,0,0,0-.173.173.229.229,0,0,0,.058.134l7.019,7.009h5.492l-6.9-6.9-.019-.01a1.038,1.038,0,0,0-.739-.394l-4.734-.01Z" transform="translate(-106.941 -106.308)" fill="#e12726"/>
    <path id="Path_149" data-name="Path 149" d="M206.1,269.9l2.727,2.727,2.756-2.727Z" transform="translate(-173.655 -175.282)" fill="#b3282d"/>
    <path id="Path_150" data-name="Path 150" d="M325.9,363.937l7.009,7.029a.169.169,0,0,0,.173.048.183.183,0,0,0,.134-.163v-4.676a.915.915,0,0,0-.3-.682h0l-4.292-4.292Z" transform="translate(-281.952 -257.815)" fill="#e12726"/>
    <path id="Path_151" data-name="Path 151" d="M382.238,297.267a.161.161,0,0,0,.163.048.184.184,0,0,0,.134-.154l-.01-4.667a.958.958,0,0,0-.288-.73l-6.769-6.76a.393.393,0,0,0-.269-.106v5.329Z" transform="translate(-326.518 -188.842)" fill="#b3282d"/>
    <path id="Path_152" data-name="Path 152" d="M325.9,289.38l2.727,2.756,2.007-2.007V284.8a.376.376,0,0,0-.307.154Z" transform="translate(-281.952 -188.751)" fill="#e12726"/>
    <path id="Path_153" data-name="Path 153" d="M249.7,344.9a.171.171,0,0,0,.173.173.229.229,0,0,0,.134-.058l7.009-7.019V332.5l-6.9,6.9-.01.019a1.038,1.038,0,0,0-.394.739l-.01,4.734Z" transform="translate(-213.068 -231.871)" fill="#e12726"/>
    <path id="Path_154" data-name="Path 154" d="M325.9,337.992l2.727-2.737L325.9,332.5Z" transform="translate(-281.952 -231.871)" fill="#b3282d"/>
    <path id="Path_155" data-name="Path 155" d="M420.427,200.717l7.029-7.009a.169.169,0,0,0,.048-.173.183.183,0,0,0-.163-.134h-4.676a.915.915,0,0,0-.682.3h0L417.7,197.98Z" transform="translate(-364.937 -106.127)" fill="#e12726"/>
    <path id="Path_156" data-name="Path 156" d="M353.577,144.1a.144.144,0,0,0,.048-.163.184.184,0,0,0-.154-.134l-4.667.01a.958.958,0,0,0-.73.288l-6.769,6.769a.393.393,0,0,0-.106.269h5.329Z" transform="translate(-295.783 -61.29)" fill="#b3282d"/>
    <path id="Path_157" data-name="Path 157" d="M345.78,225.034l2.756-2.727-2.007-2.007H341.2a.376.376,0,0,0,.154.307Z" transform="translate(-295.783 -130.445)" fill="#e12726"/>
    <path id="Path_158" data-name="Path 158" d="M401.3,276.917a.17.17,0,0,0,.173-.173.229.229,0,0,0-.058-.134l-7.019-7.009H388.9l6.9,6.9.019.019a1.038,1.038,0,0,0,.739.394Z" transform="translate(-338.903 -175.011)" fill="#e12726"/>
    <path id="Path_159" data-name="Path 159" d="M394.392,243.837l-2.737-2.737-2.756,2.737Z" transform="translate(-338.903 -149.247)" fill="#b3282d"/>
  </g>
</svg>
