<?xml version="1.0" encoding="utf-8"?>
<!-- Generator: Adobe Illustrator 27.8.1, SVG Export Plug-In . SVG Version: 6.00 Build 0)  -->
<svg version="1.1" id="Layer_1" xmlns="http://www.w3.org/2000/svg" xmlns:xlink="http://www.w3.org/1999/xlink" x="0px" y="0px"
	 viewBox="0 0 200 199.1" style="enable-background:new 0 0 200 199.1;" xml:space="preserve">
<style type="text/css">
	.st0{fill:#FFFFFF;}
</style>
<path id="instagram" class="st0" d="M127.8,99.5c0,15.3-12.5,27.8-27.8,27.8c-15.3,0-27.8-12.5-27.8-27.8
	c0-15.3,12.5-27.8,27.8-27.8C115.3,71.8,127.8,84.2,127.8,99.5z M166.7,66.2v66.7c0,18.7-14.6,33.3-33.3,33.3H66.7
	c-18.7,0-33.3-14.6-33.3-33.3V66.2c0-18.7,14.6-33.3,33.3-33.3h66.7C152,32.9,166.7,47.5,166.7,66.2z M138.9,99.5
	c0-21.4-17.4-38.9-38.9-38.9c-21.4,0-38.9,17.4-38.9,38.9s17.4,38.9,38.9,38.9C121.4,138.4,138.9,121,138.9,99.5z M144.4,55.1
	c0-3.1-2.5-5.6-5.6-5.6c-3.1,0-5.6,2.5-5.6,5.6c0,3.1,2.5,5.6,5.6,5.6C142,60.7,144.4,58.2,144.4,55.1z M200,35.4v128.4
	c0,19.8-16,35.8-35.8,35.8H35.8C16,199.5,0,183.5,0,163.7V35.4C0,15.6,16-0.5,35.8-0.5h128.4C184-0.5,200,15.6,200,35.4z
	 M177.8,66.2c0-24.9-19.5-44.5-44.4-44.5H66.7c-24.9,0-44.4,19.5-44.4,44.5v66.7c0,24.9,19.5,44.4,44.4,44.4h66.7
	c24.9,0,44.4-19.5,44.4-44.4V66.2z"/>
</svg>
