<?xml version="1.0" encoding="utf-8"?>
<!-- Generator: Adobe Illustrator 27.8.1, SVG Export Plug-In . SVG Version: 6.00 Build 0)  -->
<svg version="1.1" id="Layer_1" xmlns="http://www.w3.org/2000/svg" xmlns:xlink="http://www.w3.org/1999/xlink" x="0px" y="0px"
	 viewBox="0 0 200 199.1" style="enable-background:new 0 0 200 199.1;" xml:space="preserve">
<style type="text/css">
	.st0{fill:#FFFFFF;}
</style>
<path id="twitter" class="st0" d="M168.1-0.5H31.9C14.3-0.5,0,13.8,0,31.4v136.3c0,17.6,14.3,31.9,31.9,31.9h136.3
	c17.6,0,31.9-14.3,31.9-31.9V31.4C200,13.8,185.7-0.5,168.1-0.5z M166.3,62.1c-3.4,6.1-7,10.6-11,11.8
	c6.1,62.5-56.4,101.9-121.6,70.6c17.9-0.4,33.6-2.9,43.7-11c-18.8-0.8-28.8-7.1-32.8-17c7.5,0.9,11.5,0.4,16-2.2
	c-18-7.5-22-15.5-21.9-25.5c5.5,3.8,11,5.8,16.8,4.8C40.3,81,37,68.4,41.9,54.8c16.3,19.8,36.4,34.4,58.1,33.6
	c-2.2-39.4,27.5-47.6,46.2-31.6c5.2-0.4,12.4-2.6,20.1-5.1c-4.1,5.6-9.5,9.9-15.9,13.4C155.8,65.6,161.1,64.4,166.3,62.1z"/>
</svg>
